<svg width="32.000000" height="32.000000" viewBox="0 0 32 32" fill="none" xmlns="http://www.w3.org/2000/svg" xmlns:xlink="http://www.w3.org/1999/xlink">
	<desc>
			Created with Pixso.
	</desc>
	<defs>
		<clipPath id="clip31_111">
			<rect id="Frame" rx="-0.500000" width="31.000000" height="31.000000" transform="translate(0.500000 0.500000)" fill="white" fill-opacity="0"/>
		</clipPath>
	</defs>
	<rect id="Frame" rx="-0.500000" width="31.000000" height="31.000000" transform="translate(0.500000 0.500000)" fill="#F5F5DC" fill-opacity="0"/>
	<g clip-path="url(#clip31_111)">
		<path id="Vector" d="M10.79 3.5C6.77 3.5 3.5 6.77 3.5 10.79L3.5 21.2C3.5 25.22 6.77 28.5 10.79 28.5L21.2 28.5C25.22 28.5 28.5 25.22 28.5 21.2L28.5 10.79C28.5 6.77 25.22 3.5 21.2 3.5L10.79 3.5ZM23.5 7.5C24.05 7.5 24.5 7.94 24.5 8.5C24.5 9.05 24.05 9.5 23.5 9.5C22.94 9.5 22.5 9.05 22.5 8.5C22.5 7.94 22.94 7.5 23.5 7.5ZM16 9.5C19.58 9.5 22.5 12.41 22.5 16C22.5 19.58 19.58 22.5 16 22.5C12.41 22.5 9.5 19.58 9.5 16C9.5 12.41 12.41 9.5 16 9.5ZM16 11.5C13.51 11.5 11.5 13.51 11.5 16C11.5 18.48 13.51 20.5 16 20.5C18.48 20.5 20.5 18.48 20.5 16C20.5 13.51 18.48 11.5 16 11.5Z" fill="#F5F5DC" fill-opacity="1.000000" fill-rule="nonzero"/>
	</g>
</svg>
